<svg width="190" height="32" viewBox="0 0 190 32" fill="none" xmlns="http://www.w3.org/2000/svg">
<g clip-path="url(#clip0)">
<path d="M15.9227 31.987V25.7663C22.518 25.7663 27.6054 19.2636 25.0627 12.3826C24.6 11.1054 23.8623 9.94553 22.9017 8.985C21.9412 8.02446 20.7813 7.28675 19.5041 6.82406C18.0218 6.26667 16.4267 6.07579 14.8547 6.26769C13.2827 6.4596 11.7804 7.02858 10.4757 7.9262C9.17095 8.82382 8.1025 10.0235 7.36132 11.423C6.62014 12.8225 6.22819 14.3804 6.21884 15.9641H0C0 5.59618 10.0822 -2.60353 21.1047 0.790625C23.4734 1.53466 25.6273 2.84018 27.3827 4.59598C29.1382 6.35178 30.4433 8.50584 31.1869 10.8747C34.5792 21.9029 26.3814 31.987 15.9227 31.987Z" fill="#A8A3B9"/>
<path d="M16.0173 25.7662H9.7985V19.6401H16.0173V25.7662ZM9.7985 30.5737H5.08754V25.7662H9.7985V30.5737ZM5.08754 25.7662H1.13525V21.8083H5.08754V25.7662ZM56.8153 9.27219C55.0256 8.04621 52.6701 7.38024 50.0308 7.38024H44.285V25.7586H50.0327C52.6714 25.7586 54.9329 25.099 56.8172 23.7797C57.8465 23.0309 58.6592 22.0231 59.1727 20.8585C59.7403 19.6325 60.0203 18.1246 60.0203 16.5221C60.0203 14.9197 59.7384 13.4118 59.1727 12.2804C58.6051 10.8747 57.8521 9.93248 56.8153 9.27219V9.27219ZM47.6772 10.4982H49.467C51.446 10.4982 53.1412 10.8766 54.4599 11.7242C55.8732 12.5718 56.541 14.1837 56.541 16.5316C56.541 18.8795 55.7842 20.5842 54.4599 21.5264C53.2358 22.2831 51.6333 22.7523 49.5597 22.7523H47.6772V10.4982ZM64.071 7.10591C63.8091 7.09891 63.5486 7.14567 63.3055 7.24329C63.0625 7.34091 62.842 7.48733 62.6577 7.67349C62.443 7.83941 62.271 8.05424 62.1562 8.30008C62.0413 8.54591 61.9869 8.81564 61.9974 9.08678C61.9974 9.61164 62.2059 10.115 62.577 10.4861C62.9482 10.8573 63.4515 11.0658 63.9764 11.0658C64.5012 11.0658 65.0046 10.8573 65.3757 10.4861C65.7469 10.115 65.9554 9.61164 65.9554 9.08678C65.9622 8.82494 65.9154 8.56446 65.8178 8.3214C65.7202 8.07834 65.5739 7.85784 65.3878 7.67349C65.1059 7.2951 64.631 7.10591 64.0634 7.10591H64.071ZM62.3607 12.7609H65.6583V25.6735H62.3739V12.7609H62.3607ZM77.449 13.8961C76.503 13.0485 75.3678 12.4828 74.1513 12.4828C73.3209 12.4645 72.4961 12.6239 71.7323 12.9502C70.9685 13.2765 70.2831 13.7622 69.7222 14.3748C68.5454 15.6214 67.903 17.2789 67.9325 18.993C67.9325 20.7847 68.5 22.3853 69.6352 23.6113C70.7704 24.8373 72.2726 25.403 74.0643 25.403C75.2172 25.421 76.3437 25.0564 77.2673 24.3662V24.6481C77.2673 25.6849 76.9854 26.54 76.4197 27.1076C75.8541 27.6752 75.0954 27.9552 74.0643 27.9552C72.5507 27.9552 71.6142 27.3876 70.4847 25.787L68.2144 27.9552L68.309 28.0498C68.78 28.7101 69.533 29.3742 70.4752 30.0288C71.4174 30.6834 72.6415 30.9748 74.0548 30.9748C76.0338 30.9748 77.5417 30.4072 78.6712 29.1831C79.8007 27.959 80.4609 26.4492 80.4609 24.4702V12.7609H77.2617V13.8961H77.4509H77.449ZM76.6033 21.5301C76.0357 22.1904 75.2789 22.4761 74.3329 22.4761C73.3869 22.4761 72.6302 22.1942 72.0626 21.5301C71.495 20.8661 71.215 20.0166 71.215 18.9855C71.215 17.9544 71.5158 17.0954 72.0834 16.4351C72.651 15.7748 73.4078 15.4891 74.3537 15.4891C75.2997 15.4891 76.0565 15.771 76.6241 16.4351C77.1917 17.0992 77.4717 17.9487 77.4717 18.9798C77.4717 20.0109 77.1898 20.8717 76.6241 21.5245L76.6033 21.5301ZM83.5013 12.7591H86.799V25.6716H83.4805V12.7609L83.5013 12.7591ZM85.083 7.10591C84.8213 7.09942 84.5611 7.14617 84.318 7.24333C84.075 7.34048 83.8543 7.48602 83.6692 7.67109C83.4841 7.85617 83.3386 8.07692 83.2414 8.31996C83.1443 8.56299 83.0975 8.82323 83.104 9.08489C83.104 9.60975 83.3125 10.1131 83.6836 10.4842C84.0548 10.8554 84.5581 11.0639 85.083 11.0639C85.6078 11.0639 86.1112 10.8554 86.4823 10.4842C86.8535 10.1131 87.062 9.60975 87.062 9.08489C87.0685 8.82307 87.0217 8.56267 86.9244 8.3195C86.8271 8.07634 86.6814 7.85549 86.4961 7.67039C86.3109 7.48529 86.0899 7.3398 85.8466 7.24276C85.6034 7.14572 85.3429 7.09916 85.0811 7.10591H85.083ZM93.8408 9.27219H90.6415V12.7609H88.7496V15.6821H90.6415V21.0553C90.6415 22.758 91.0199 23.9764 91.6783 24.6367C92.3367 25.297 93.5703 25.6735 95.1652 25.6735C95.7011 25.689 96.2373 25.6574 96.7677 25.5789H96.9569V22.6558L95.8217 22.7504C95.0649 22.7504 94.4973 22.6558 94.3081 22.3721C94.0262 22.0902 93.9297 21.5245 93.9297 20.6693V15.7767H96.9455V12.8537H93.9392L93.8408 9.27219ZM112.119 7.38024H115.417V25.7586H112.123V7.39159L112.119 7.38024ZM148.304 21.1517C147.823 21.709 147.286 22.2161 146.702 22.6653C146.189 22.9765 145.599 23.1395 144.999 23.1364C144.557 23.1326 144.121 23.0377 143.717 22.8577C143.314 22.6776 142.951 22.4164 142.653 22.0902C141.993 21.3334 141.707 20.4877 141.707 19.3563C141.707 18.2249 141.989 17.3773 142.653 16.6224C142.939 16.2798 143.301 16.0079 143.709 15.8281C144.118 15.6482 144.563 15.5652 145.009 15.5856C146.045 15.5856 147.175 16.2459 148.117 17.3773L150.283 15.2962C148.87 13.5045 147.08 12.6569 144.912 12.6569C143.122 12.6569 141.614 13.3172 140.296 14.6359C139.062 15.9299 138.383 17.6553 138.404 19.4433C138.404 21.3353 139.064 23.0248 140.296 24.2508C140.882 24.888 141.596 25.3938 142.392 25.7349C143.188 26.076 144.047 26.2447 144.912 26.2297C147.268 26.2297 149.152 25.193 150.471 23.3086L148.304 21.1404V21.1517ZM161.59 14.6378C161.094 13.9846 160.444 13.4646 159.698 13.1242C158.843 12.7282 157.908 12.534 156.966 12.5566C155.176 12.5566 153.668 13.2169 152.537 14.5356C151.466 15.9063 150.9 17.604 150.934 19.343C150.934 21.322 151.502 22.9245 152.724 24.1505C153.946 25.3765 155.456 26.0424 157.435 26.0424C159.601 26.0424 161.393 25.1948 162.806 23.4032L162.901 23.3086L160.735 21.2274C160.545 21.5093 160.263 21.6985 159.978 21.9842C159.71 22.266 159.388 22.4906 159.032 22.6445C158.542 22.913 157.988 23.0438 157.429 23.0229C156.609 23.0348 155.808 22.768 155.159 22.2661C154.591 21.795 154.311 21.1309 154.213 20.2871H162.882V19.0611C162.903 18.2253 162.775 17.3924 162.503 16.6016C162.366 15.8709 162.04 15.1888 161.558 14.6226L161.59 14.6378ZM154.523 17.6611C154.667 17.0907 154.96 16.5685 155.371 16.1475C155.593 15.9256 155.86 15.7523 156.153 15.6386C156.446 15.525 156.76 15.4734 157.074 15.4872C157.83 15.4872 158.487 15.6764 158.863 16.1475C159.242 16.5259 159.431 17.0935 159.524 17.6611H154.523V17.6611ZM174.122 13.7958C173.176 12.9483 171.766 12.5699 170.071 12.5699C169.035 12.5992 168.013 12.8239 167.059 13.232C166.212 13.7031 165.357 14.3672 164.893 15.3132L166.974 17.2922C167.822 15.8789 168.764 15.4002 170.083 15.4002C170.699 15.3839 171.302 15.5848 171.785 15.9678C172 16.1337 172.172 16.3486 172.287 16.5944C172.402 16.8402 172.456 17.11 172.446 17.3811V18.0414C171.687 17.7854 170.891 17.6575 170.09 17.663C168.488 17.663 167.169 18.0414 166.132 18.7982C165.095 19.5549 164.619 20.6901 164.619 22.0031C164.619 23.2291 164.997 24.1713 165.843 24.9243C166.688 25.6773 167.735 25.9611 168.951 25.9611C170.168 25.9611 171.307 25.49 172.438 24.6367V25.6735H175.641V17.3792C175.641 15.8656 175.17 14.6453 174.128 13.7977L174.122 13.7958ZM168.38 20.7715C168.758 20.4896 169.227 20.3931 169.893 20.3931C170.73 20.4213 171.556 20.5802 172.344 20.8642V22.0902C171.564 22.7763 170.555 23.1462 169.517 23.1269C168.949 23.1269 168.48 23.0323 168.193 22.7486C167.905 22.4648 167.721 22.181 167.721 21.8026C167.755 21.5938 167.831 21.3941 167.944 21.2157C168.058 21.0374 168.207 20.8843 168.382 20.7658L168.38 20.7715ZM188.16 13.985C187.214 12.9483 185.994 12.4715 184.391 12.4715C183.072 12.4715 182.036 12.8499 181.283 13.6067V12.8499H178.078V25.7624H181.376V18.6033C181.376 17.6573 181.565 16.8116 182.036 16.2478C182.267 15.9726 182.557 15.7533 182.884 15.6064C183.212 15.4596 183.569 15.3891 183.928 15.4002C184.251 15.3845 184.574 15.4447 184.869 15.5762C185.165 15.7076 185.426 15.9065 185.631 16.157C186.073 16.7594 186.305 17.4908 186.291 18.2381V25.7776H189.574V18.2268C189.479 16.4357 189.008 15.0218 188.16 13.985V13.985ZM108.072 13.7958C107.126 12.9483 105.717 12.5699 104.021 12.5699C102.984 12.5982 101.96 12.8222 101.006 13.2302C100.158 13.7012 99.3029 14.3653 98.8393 15.3113L100.92 17.2903C101.768 15.877 102.71 15.3983 104.029 15.3983C104.646 15.382 105.248 15.5829 105.732 15.9659C105.946 16.1318 106.118 16.3467 106.233 16.5925C106.348 16.8383 106.403 17.1081 106.392 17.3792V18.0395C105.633 17.7835 104.837 17.6556 104.037 17.6611C102.435 17.6611 101.115 18.0395 100.079 18.7963C99.0418 19.5531 98.565 20.6882 98.565 22.0012C98.565 23.2272 98.9434 24.1694 99.7891 24.9224C100.635 25.6754 101.681 25.9592 102.898 25.9592C104.114 25.9592 105.253 25.4881 106.384 24.6348V25.6716H109.588V17.3792C109.588 15.8656 109.02 14.6453 108.074 13.7977L108.072 13.7958ZM102.232 20.7715C102.61 20.4896 103.079 20.3931 103.745 20.3931C104.581 20.4213 105.408 20.5802 106.195 20.8642V22.0902C105.415 22.7763 104.407 23.1462 103.369 23.1269C102.801 23.1269 102.332 23.0323 102.044 22.7486C101.757 22.4648 101.573 22.181 101.573 21.8026C101.714 21.4125 101.94 21.0584 102.234 20.7658L102.232 20.7715ZM127.207 26.0443C125.343 26.0451 123.52 25.4929 121.97 24.4577C120.419 23.4224 119.21 21.9506 118.496 20.2283C117.782 18.5061 117.595 16.6107 117.958 14.7821C118.322 12.9534 119.219 11.2736 120.537 9.955C121.855 8.63641 123.535 7.73833 125.363 7.37433C127.192 7.01033 129.087 7.19677 130.81 7.91006C132.532 8.62336 134.005 9.83148 135.04 11.3816C136.076 12.9317 136.629 14.7542 136.629 16.6186C136.62 19.1151 135.625 21.5068 133.86 23.2724C132.095 25.038 129.704 26.0344 127.207 26.0443V26.0443ZM127.207 10.3998C125.995 10.3979 124.81 10.7555 123.802 11.4274C122.793 12.0992 122.006 13.0551 121.541 14.1741C121.076 15.2931 120.953 16.525 121.188 17.7139C121.423 18.9028 122.005 19.9952 122.861 20.8531C123.717 21.7109 124.808 22.2956 125.997 22.5332C127.185 22.7708 128.417 22.6505 129.537 22.1877C130.657 21.7249 131.615 20.9403 132.289 19.9332C132.963 18.926 133.323 17.7416 133.324 16.5297C133.326 15.7249 133.168 14.9276 132.861 14.1837C132.554 13.4398 132.103 12.7638 131.534 12.1947C130.965 11.6255 130.289 11.1743 129.546 10.8669C128.802 10.5595 128.005 10.4021 127.2 10.4036" fill="#A8A3B9"/>
</g>
<defs>
<clipPath id="clip0">
<rect width="189.573" height="32" fill="white"/>
</clipPath>
</defs>
</svg>
