<svg width="78" height="32" viewBox="0 0 78 32" fill="none" xmlns="http://www.w3.org/2000/svg">
<g clip-path="url(#clip0)">
<path d="M5.48655 12.4845C5.48655 11.6553 6.17098 11.3362 7.30478 11.3362C8.9302 11.3362 10.9835 11.8255 12.609 12.6973V7.69986C10.8339 6.99815 9.07996 6.72169 7.30478 6.72169C2.9627 6.72169 0.0751953 8.97588 0.0751953 12.7399C0.0751953 18.609 8.20291 17.6734 8.20291 20.204C8.20291 21.182 7.34748 21.5012 6.14962 21.5012C4.37441 21.5012 2.10712 20.7781 0.310407 19.7999V24.861C2.29962 25.7117 4.3102 26.0731 6.14962 26.0731C10.5985 26.0731 13.6571 23.8829 13.6571 20.0763C13.6357 13.7393 5.48655 14.8662 5.48655 12.4845ZM19.9454 2.46869L14.7265 3.57441L14.7052 20.6079C14.7052 23.7553 17.0794 26.0731 20.245 26.0731C21.9989 26.0731 23.2821 25.7541 23.9879 25.3713V21.0545C23.3036 21.331 19.924 22.3092 19.924 19.1619V11.6127H23.9879V7.08323H19.924L19.9454 2.46869ZM30.64 8.6568L30.2977 7.08323H25.6777V25.6903H31.025V13.0801C32.2867 11.4427 34.4257 11.7403 35.0889 11.9742V7.08323C34.4044 6.828 31.9019 6.36015 30.64 8.6568ZM36.3935 7.08323H41.7621V25.6903H36.3935V7.08323ZM36.3935 5.46705L41.7621 4.31872V0.00189209L36.3935 1.12899V5.4669V5.46705ZM52.9271 6.72169C50.831 6.72169 49.4835 7.69986 48.735 8.38048L48.4567 7.062H43.7514V31.8571L49.0985 30.7302L49.12 24.7121C49.89 25.2651 51.0235 26.0518 52.9057 26.0518C56.7344 26.0518 60.2207 22.9896 60.2207 16.2486C60.1994 10.0816 56.6702 6.72169 52.9271 6.72169ZM51.6439 21.3734C50.3819 21.3734 49.6332 20.927 49.12 20.374L49.0985 12.4845C49.6546 11.8679 50.4247 11.4427 51.6439 11.4427C53.5902 11.4427 54.9377 13.6117 54.9377 16.3974C54.9377 19.247 53.6115 21.3734 51.6439 21.3734ZM77.0752 16.4612C77.0752 11.0173 74.4229 6.72169 69.3539 6.72169C64.2632 6.72169 61.1832 11.0175 61.1832 16.4187C61.1832 22.8195 64.8194 26.0518 70.0382 26.0518C72.5835 26.0518 74.5085 25.4777 75.9629 24.6697V20.4166C74.5086 21.1396 72.8402 21.5862 70.7227 21.5862C68.6479 21.5862 66.8085 20.8631 66.5732 18.3539H77.0325C77.0325 18.0773 77.0752 16.9715 77.0752 16.4612ZM66.509 14.4411C66.509 12.0381 67.985 11.0385 69.3325 11.0385C70.6372 11.0385 72.0275 12.0381 72.0275 14.4411H66.509Z" fill="#A8A3B9"/>
</g>
<defs>
<clipPath id="clip0">
<rect width="77" height="32" fill="white" transform="translate(0.0751953)"/>
</clipPath>
</defs>
</svg>
